<?xml version="1.0" encoding="UTF-8"?><svg id="icon" xmlns="http://www.w3.org/2000/svg" viewBox="0 0 599.75 512"><path d="M342.35,245.33c9.87.08,19.67,7.51,23.63,16.55,6.07,13.87,9.81,36.71,2.34,68.82-12.95,55.67-40.99,146.58-73.87,163.51-50.51,26-62.68-87.26-18.37-188.85,22.44-51.45,43.55-60.22,66.27-60.03Z" fill="#f7c56f"/><path d="M280.65,499.01c-5.72,0-10.92-2.11-15.41-6.31-12.38-11.61-18.69-38.36-17.3-73.39,1.46-36.89,11.11-77.5,27.18-114.35,21.87-50.13,42.45-60.66,66.54-60.66.23,0,.46,0,.69,0,9.91.08,20.25,7.3,24.57,17.17,10.55,24.08,6.03,53.86,2.4,69.47-5.55,23.88-35.25,144.04-74.4,164.2-5.02,2.58-9.81,3.87-14.28,3.87ZM341.68,246.37c-23.28,0-43.23,10.3-64.65,59.41-15.97,36.62-25.57,76.97-27.01,113.61-1.36,34.43,4.71,60.6,16.65,71.79,7.39,6.93,16.58,7.64,27.31,2.11,14.38-7.41,29.16-29.84,43.92-66.69,14.64-36.54,24.71-75.91,29.41-96.13,8.32-35.78,2.14-58.06-2.28-68.16-3.95-9.01-13.7-15.86-22.68-15.93h0c-.22,0-.44,0-.66,0Z" fill="#5b3b28"/><path d="M399.26,220.55s-86.02,8.73-108.92,58.15c-18.11,39.1,27.87,44.11,24.21,85.19-4.23,47.45.07,92.98,3.54,123.4,0,0,14.51,15.96,88.23,21.5,76.42,5.74,127.55-6,127.55-6l9.61-122.71c-22.57-76.98,11.17-126.58,11.17-126.58-13.6-12.59-48.28-22.78-48.28-22.78-57.94-17.7-107.12-10.16-107.12-10.16Z" fill="#f7c56f"/><path d="M533.88,503.83s-.05,0-.08,0c-.57-.05-1-.54-.95-1.12l9.6-122.52c-11.66-39.91-7.98-72.34-2.83-92.52,4.88-19.16,11.79-30.96,13.7-33.99-13.69-12.02-46.88-21.87-47.22-21.97-57.06-17.43-106.18-10.21-106.67-10.13-.9.08-83.53,7.52-112.06,63.28-.26.51-.89.71-1.4.45-.51-.26-.71-.89-.45-1.4,15.21-29.72,45.33-45.65,67.92-53.78,24.41-8.79,45.55-10.61,45.76-10.62.42-.07,50.01-7.36,107.51,10.2,1.41.42,35.06,10.4,48.68,23.01.38.35.44.92.15,1.35-.33.49-33.19,50.13-11.03,125.71.04.12.05.25.04.37l-9.61,122.71c-.04.54-.5.96-1.03.96Z" fill="#5b3b28"/><path d="M426.13,279.32s10.31,21.3,10.53,60.56c.21,39.26,2.62,135.73,4.06,153.23,0,0-17.8,10.03-22.02,13.9l-22.2-10.76s-6.34-127.87-3.02-154.83c3.32-26.96,11.63-50.3,16.81-60.8,0,0,5.5-2.47,15.84-1.3Z" fill="#fff8f0"/><path d="M425.4,282.74s8.18-5.46,8.71-11.75c.25-2.89-5.76-15.89-5.76-15.89,0,0-6.85-7.68-16.36-.55-3.56,2.67-4.28,7.67-5.98,11.83-1.97,4.82,5.3,16.51,5.3,16.51,0,0,11.85,1.21,14.09-.15Z" fill="#fff8f0"/><path d="M419.78,284.57c-1.39,0-2.87-.11-4.62-.33-3.22-.41-5.43-1.86-6.75-4.41-3.35-6.45-4.47-11.11-3.36-13.84l.62-1.54c1.68-4.15,3.58-8.86,5.63-10.68,8.12-7.18,17.61.45,17.71.53.15.12.27.29.33.48.84,2.55,5.05,15.32,5.16,16.8.25,3.4-3.54,7.95-6.15,10.19-1.85,1.58-4.05,2.52-6.38,2.72-.73.06-1.45.09-2.19.09ZM419.26,252.75c-2.12,0-4.4.66-6.57,2.58-1.69,1.49-3.57,6.15-5.08,9.9l-.63,1.55c-.84,2.05.35,6.46,3.28,12.09,1,1.93,2.65,2.98,5.18,3.31,2.53.33,4.44.4,6.37.23h0c1.89-.16,3.69-.93,5.2-2.22,2.74-2.34,5.6-6.24,5.43-8.45-.1-1.02-3.05-10.22-4.96-16-.9-.68-4.26-2.98-8.21-2.98Z" fill="#5b3b28"/><path d="M418.7,508.05c-.15,0-.31-.03-.45-.1l-22.2-10.76c-.34-.17-.56-.5-.58-.88-.06-1.28-6.3-128.27-3.01-155.01,3.47-28.23,12.18-51.54,16.78-60.86.25-.51.87-.72,1.39-.47.51.25.73.88.47,1.39-4.54,9.2-13.14,32.24-16.58,60.2-3.15,25.61,2.53,144.38,3,154.04l21.03,10.19c4.53-3.77,18.07-11.53,21.09-13.24-1.43-19.01-3.8-113.84-4.01-152.65-.17-31.37-6.72-51.02-9.52-58.01-.21-.53.04-1.14.58-1.35.53-.21,1.14.05,1.35.58,2.85,7.1,9.5,27.05,9.67,58.77.21,39.26,2.63,135.84,4.06,153.15.03.4-.17.79-.53.99-.18.1-17.75,10.01-21.82,13.76-.2.18-.45.27-.7.27Z" fill="#5b3b28"/><path d="M439.54,290.28c-.42,0-.81-.25-.97-.66-5.9-15.23-11.16-34.04-11.21-34.23-.15-.55.17-1.13.72-1.28.55-.15,1.13.17,1.28.72.05.18,5.07,18.15,10.79,33.11,4.91-1.69,28.15-10.13,43.59-23.05.2-.16,17.64-13.96,13.07-26.21-.02-.04-4.6-9.76-24.19-14.47-.56-.13-.9-.69-.77-1.25s.69-.9,1.25-.77c20.69,4.98,25.44,15.27,25.63,15.71,2.16,5.77.43,12.55-4.97,19.65-3.99,5.25-8.52,8.81-8.71,8.96-17.55,14.68-44.92,23.64-45.19,23.73-.11.03-.21.05-.32.05Z" fill="#5b3b28"/><path d="M397.02,284.65c-.3,0-.58-.13-.78-.35-.13-.15-13.11-15.07-22.83-32.51-.07-.11-2.56-4.02-3.96-8.94-1.92-6.74-.81-12.07,3.21-15.42.4-.29,8.34-5.75,18.35-7.03.57-.08,1.09.33,1.16.9.07.57-.33,1.09-.9,1.16-9.49,1.21-17.28,6.57-17.35,6.62-8.12,6.77,1.18,21.49,1.27,21.64,8.01,14.37,18.24,27,21.54,30.94,4.65-10.69,12.2-24.56,12.28-24.71.27-.5.9-.69,1.41-.41.5.27.69.91.41,1.41-.08.15-8.33,15.32-12.85,26.07-.14.33-.44.57-.79.62-.05,0-.11.01-.17.01Z" fill="#5b3b28"/><path d="M524.78,241.02c-9.81-1.03-20.39,5.26-25.34,13.79-7.59,13.1-13.87,35.37-10.06,68.12,6.61,56.77,24.26,150.26,55.03,170.78,47.26,31.52,72.09-79.67,39.48-185.59-16.52-53.65-36.51-64.73-59.11-67.1Z" fill="#f7c56f"/><path d="M560.11,500.16c-5.21,0-10.69-1.87-16.28-5.59-17.93-11.95-25.75-43.92-29.15-68.64-4-29.07-4.13-65.1-.34-96.38.07-.57.58-.97,1.16-.91.57.07.98.59.91,1.16-6.7,55.32-2.26,142.48,28.58,163.04,10.04,6.7,19.26,7.03,27.38.97,25.96-19.36,35.98-102.75,10.54-185.39-14.3-46.44-30.69-58.58-44.84-64.33-.53-.22-.79-.82-.57-1.35.22-.53.82-.79,1.35-.57,14.6,5.93,31.48,18.37,46.04,65.64,11.83,38.42,16.86,79.86,14.16,116.69-2.56,34.97-11.84,60.84-25.44,70.98-4.19,3.12-8.73,4.68-13.49,4.68Z" fill="#5b3b28"/><path d="M313.98,412.96h-.01c-.57,0-1.03-.48-1.03-1.05,0-.48.68-48.55,8.99-83.58.13-.56.69-.9,1.25-.77.56.13.9.69.77,1.25-8.26,34.8-8.93,82.65-8.93,83.13,0,.57-.47,1.03-1.04,1.03Z" fill="#5b3b28"/><path d="M389.31,200.58s.7,22.13.32,37.56c0,0,14.68,16.34,38.7,13.42,26.21-3.18,42.65-14.21,42.65-14.21,0,0,1.49-42.53,2.29-58.23l-83.96,21.47Z" fill="#f4be96"/><path d="M423.98,252.81c-20.13,0-34.42-13.31-35.06-13.92-.21-.2-.32-.47-.32-.75-.09-17.47-.32-37.35-.32-37.55,0-.48.32-.9.78-1.02l83.96-21.47c.32-.08.66,0,.91.2.26.21.4.53.38.86-.78,15.52-2.27,57.79-2.29,58.22-.01.35-.19.66-.49.84-.19.12-19.58,12.05-43.09,14.37-1.51.15-3,.22-4.45.22ZM390.67,237.68c2.39,2.1,17.75,14.81,37.56,12.85,21.03-2.07,38.67-11.98,41.73-13.78.18-4.94,1.45-40.82,2.2-56.28l-81.8,20.92c.04,3.89.23,20.94.31,36.29Z" fill="#5b3b28"/><path d="M509.19,138.03c-.19,0-.38-.05-.55-.16-.49-.3-.64-.94-.33-1.43,17.8-28.7-9.11-47.87-10.26-48.67-.47-.33-.59-.97-.26-1.45.33-.47.97-.59,1.44-.26.3.21,29.69,21.08,10.85,51.47-.2.32-.54.49-.88.49Z" fill="#5b3b28"/><path d="M419.46,54.16h0c35.5.6,63.79,29.87,63.19,65.37l-.65,38.22c-11.12,54.77-39.75,63.62-65.37,63.19h0c-36.29-.61-60.52-29.81-59.92-65.31l.65-38.22c.6-35.5,26.6-63.85,62.09-63.24Z" fill="#f4be96"/><path d="M418.35,221.99c-.57,0-1.15,0-1.73-.01-17.56-.3-33.38-7.37-44.55-19.92-10.87-12.21-16.69-28.7-16.39-46.45l.65-38.22c.3-17.65,6.78-33.94,18.25-45.86,11.69-12.16,27.69-18.68,44.9-18.4,17.45.3,33.73,7.37,45.86,19.91,12.13,12.55,18.64,29.06,18.35,46.51l-.65,38.22c0,.06,0,.13-.02.19-2.57,12.67-5.8,23.02-9.58,30.77-.25.52-.87.73-1.39.48-.52-.25-.73-.87-.48-1.39,3.7-7.57,6.86-17.73,9.4-30.18l.65-38.12c.29-16.89-6.02-32.88-17.77-45.03-11.74-12.15-27.51-18.99-44.4-19.28-16.71-.29-32.08,6.03-43.37,17.77-11.11,11.55-17.38,27.34-17.67,44.46l-.65,38.22c-.29,17.22,5.34,33.21,15.86,45.03,10.78,12.11,26.07,18.94,43.03,19.23,16.43.28,28.8-3.47,38.88-11.81.44-.36,1.1-.3,1.46.14.37.44.3,1.1-.14,1.46-10.13,8.37-22.4,12.3-38.51,12.3Z" fill="#5b3b28"/><ellipse cx="378.34" cy="143.17" rx="4.86" ry="4.43" transform="translate(195.4 503.96) rotate(-83.84)" fill="#5b3b28"/><ellipse cx="424.26" cy="146.66" rx="4.86" ry="4.43" transform="translate(232.93 552.75) rotate(-83.84)" fill="#5b3b28"/><path d="M403.81,159.69c-.47,0-.9-.32-1.01-.8-.01-.06-.81-3.19-3.22-3.44-2.69-.27-3.37,2.55-3.44,2.87-.12.56-.67.92-1.23.8-.56-.12-.92-.66-.8-1.22.35-1.72,2.01-4.88,5.68-4.52,3.91.39,4.99,4.84,5.04,5.03.13.56-.22,1.12-.77,1.25-.08.02-.16.03-.24.03Z" fill="#5b3b28"/><path d="M467.03,91.99s-9.96,43.45,12.28,58.06c0,0,9.49,2.86,17.77-3.81,8.29-6.67,18.6-39.68,3.62-59.63l-33.68,5.38Z" fill="#5b3b28"/><path d="M500.69,88.16s.86-26.41-25.55-42.37c-7.35-4.44-15.61-7.14-24.12-8.29-18.65-2.5-62.93-5.67-87.07,15.93-4.99,4.47-8.71,10.21-10.82,16.57-2.4,7.22-8.66,19.32-22.16,10.18,0,0-11.96,15.31,4.69,25.04,9.48,5.54,21.35,5.38,30.81-.18,3.18-1.87,6.66-4.42,10.32-7.87,8.42-7.96,21.1-9.91,31.05-3.98,2.2,1.31,4.37,3.04,6.45,5.29,0,0,27.87,30.69,86.4-10.32Z" fill="#5b3b28"/><path d="M485.19,140.12c5.66-.3,18.72,5.44,14.92,23.34-3.8,17.9-26.71,13.32-26.71,13.32l-2.67-31.35c4.97-2.95,8.81-5.01,14.46-5.32Z" fill="#f4be96"/><path d="M479.49,178.32c-3.61,0-6.22-.5-6.3-.51-.56-.11-.93-.66-.81-1.22.11-.56.67-.93,1.22-.82.05.01,5.66,1.1,11.6.04,7.74-1.38,12.42-5.61,13.89-12.56,1.48-6.99.42-12.85-3.07-16.93-3.44-4.02-8.35-5.29-10.77-5.16-5.38.29-9.03,2.24-13.99,5.17-.49.29-1.13.13-1.42-.36s-.13-1.13.36-1.42c5.06-3,9.09-5.15,14.94-5.46,3.4-.18,8.78,1.58,12.46,5.88,2.74,3.2,5.58,9.05,3.53,18.71-2.67,12.56-14.25,14.64-21.63,14.64Z" fill="#5b3b28"/><path d="M475.63,158.17c-.24,0-.48-.08-.68-.25-.43-.37-.48-1.03-.11-1.46.16-.18,3.95-4.52,9.04-4.68,2.77-.08,5.4,1.09,7.75,3.49.4.41.39,1.07-.02,1.47-.41.4-1.07.39-1.47-.02-1.92-1.97-3.97-2.94-6.18-2.87-4.18.12-7.51,3.92-7.55,3.96-.2.24-.49.36-.79.36Z" fill="#5b3b28"/><path d="M401.05,179.89c-3.82,0-8.48-1.08-13.45-4.64-.47-.33-.57-.98-.24-1.45s.98-.57,1.45-.24c11.3,8.11,20.42,2.33,20.8,2.08.48-.31,1.12-.18,1.44.3.31.48.18,1.12-.3,1.44-.06.04-3.92,2.52-9.71,2.52Z" fill="#5b3b28"/><path d="M387.83,68.54c-4.93,0-9.3-1.98-12.05-5.48-.35-.45-.28-1.1.17-1.46.45-.36,1.1-.28,1.46.17,2.47,3.14,6.32,4.8,10.84,4.68,5.82-.15,11.58-3.28,15.03-8.17,7.35-10.41,18.47-3.78,18.58-3.71.49.3.64.94.34,1.43-.3.49-.94.65-1.43.35-.39-.24-9.58-5.67-15.8,3.14-3.82,5.41-10.21,8.88-16.67,9.05-.16,0-.32,0-.48,0Z" fill="#fff8f0"/><path d="M431.01,71.99c-.24,0-.48-.08-.68-.25-7.78-6.7-15.62-2.82-15.95-2.65-.51.26-1.14.06-1.4-.45-.26-.51-.06-1.13.44-1.4.1-.05,2.4-1.22,5.79-1.45,3.14-.21,7.84.38,12.46,4.36.44.37.48,1.03.11,1.46-.2.24-.5.36-.79.36Z" fill="#fff8f0"/><path d="M423.82,109.2c-4.35,0-8.26-1-11.68-3-9.74-5.69-11.92-17.3-12.01-17.79-.1-.56.27-1.1.84-1.21.57-.1,1.1.27,1.21.84.02.11,2.12,11.19,11.03,16.38,5.94,3.46,13.58,3.6,22.7.41.54-.19,1.13.1,1.32.64.19.54-.1,1.13-.64,1.32-4.6,1.61-8.87,2.41-12.77,2.41Z" fill="#5b3b28"/><path d="M483.92,88.9c-.56,0-1.02-.44-1.04-1-.85-23.09-23.9-31.6-24.13-31.68-.54-.19-.82-.79-.63-1.33.19-.54.79-.82,1.33-.63.25.09,24.6,9.08,25.51,33.56.02.57-.43,1.06-1,1.08-.01,0-.03,0-.04,0Z" fill="#fff8f0"/><path d="M493.88,500.23s70.75,20.68,84.04-14.2c9.95-26.13-10.32-53.81-52.62-63.12-42.29-9.32-135.57-19.51-147.45-11.15-11.88,8.36-29.47,21.24,3.03,44.9,29.24,21.29,86.67,35.68,113,43.57Z" fill="#f7c56f"/><path d="M533.13,506.78c-1.63,0-3.29-.03-4.98-.1-18.52-.75-34.42-5.4-34.58-5.45-3.65-1.09-8-2.34-12.6-3.66-30.02-8.61-75.39-21.63-100.72-40.07-12.85-9.36-19.07-17.78-19-25.76.08-9.62,9.27-16.1,15.99-20.83,12.59-8.87,107.17,1.93,148.27,10.99,8.21,1.81,15.81,4.35,22.59,7.57.52.25.74.87.49,1.38-.25.52-.86.74-1.38.49-6.64-3.15-14.09-5.64-22.15-7.42-44.42-9.79-135.37-19.24-146.63-11.32-6.35,4.47-15.04,10.59-15.11,19.14-.06,7.16,6.05,15.26,18.15,24.07,25.03,18.22,70.19,31.18,100.07,39.75,4.61,1.32,8.96,2.57,12.62,3.67.15.05,15.84,4.63,34.11,5.37,16.7.68,39.07-1.82,50.72-17.55.34-.46.99-.56,1.45-.22.46.34.56.99.22,1.45-8.99,12.14-25.37,18.49-47.54,18.49Z" fill="#5b3b28"/><path d="M399.1,452.21c10.88-16.28,10.75-38.19-8.35-42.5-12.82-2.9-59.6-7.38-71.69-1.44-21.54,10.58-32.18,33.62-32.36,36.28-.83,12.5,33.1-22.23,33.1-22.23,0,0-18.54,21.33-21.48,27.3-2.94,5.96-5.33,17.08.17,15.6,5.5-1.48,16.97-20.92,26.79-27.84,0,0-33.24,37.42-15.24,37.45,0,0,.74,11.23,10.8,2.28,10.06-8.95,22.21-20.65,23.64-22.59,0,0,13.1,10.4,36.61,8.58,7.84-.6,14-4.9,18-10.88Z" fill="#f4be96"/><path d="M310.05,475.86c-.19,0-.39-.05-.56-.16-.48-.31-.62-.95-.31-1.44.11-.17,11.24-17.36,26-29.27.45-.36,1.1-.29,1.46.16.36.45.29,1.1-.16,1.46-14.49,11.7-25.45,28.61-25.56,28.78-.2.31-.53.48-.87.48Z" fill="#5b3b28"/><path d="M314.31,481.6c-.59,0-1.15-.11-1.68-.32-2.41-.99-3.23-3.92-3.49-5.45-2.53-.19-4.2-1.17-4.99-2.93-1.78-3.97,1.92-11.42,6.65-18.55-5.02,6.21-9.01,11.06-12.03,11.87-1.9.51-2.99-.22-3.56-.92-2.54-3.09.18-12.04,2.19-16.14,1.27-2.57,5.27-7.82,9.49-13.05-7.75,6.87-16.36,13.41-19.63,11.94-.81-.36-1.74-1.27-1.59-3.57.19-2.84,8.2-19.8,23.48-31.31,5.23-3.94,11.53-6.51,18.22-7.42,11.59-1.59,35.47-3.32,65.13,2.86,6.25,1.3,16.49,6.18,14.82,24.18-1.02,10.97-7.11,19.66-7.37,20.02-6.9,10.13-17.57,11.23-18.77,11.32-20.63,1.59-33.28-5.98-36.52-8.21-3.13,3.47-14.43,14.23-23.12,21.96-2.79,2.48-5.21,3.72-7.24,3.72ZM325.28,436.34c.29,0,.57.12.77.35.35.39.35.99,0,1.38-.06.07-6.01,6.78-11.42,14.39-9.28,13.05-9.38,17.87-8.61,19.59.19.43.78,1.73,4.01,1.74.55,0,1,.42,1.04.97.07,1.05.63,3.91,2.33,4.6,1.5.61,3.83-.44,6.74-3.03,10.02-8.92,22.12-20.57,23.49-22.43.17-.23.42-.37.7-.41.28-.04.56.04.78.21.13.1,13.11,10.12,35.89,8.36,1.09-.08,10.86-1.09,17.22-10.43.07-.1,6.04-8.63,7-19.03.65-7.04-.19-19.24-13.18-21.95h0c-29.36-6.12-52.97-4.41-64.42-2.84-6.33.87-12.3,3.3-17.25,7.02-15.21,11.46-22.53,27.95-22.66,29.79-.03.4-.05,1.36.36,1.54,2.38,1.06,14.61-7.83,30.96-24.56.39-.4,1.03-.42,1.45-.04.41.38.45,1.02.08,1.45-.18.21-18.49,21.3-21.33,27.07-2.36,4.78-3.98,12.05-2.45,13.91.12.15.41.51,1.42.23,2.43-.65,6.94-6.22,11.3-11.61,4.76-5.88,10.15-12.55,15.16-16.07.18-.13.39-.19.6-.19Z" fill="#5b3b28"/><path d="M255,350.41s-137.86.59-154.43,0c0,0-14.2-1.18-7.69,14.79,6.51,15.98,59.76,133.13,59.76,133.13,0,0,3.03,10.06,20.45,11.83,17.42,1.78,171.85,0,171.85,0l-65.68-142.6s-5.33-17.23-24.26-17.16Z" fill="#9d5f37"/><path d="M211.48,441.96c-.08,0-.16,0-.24,0-7.29-.15-14.59-7.33-16.27-16h0c-.93-4.8,0-9.29,2.54-12.32,1.99-2.36,4.82-3.64,7.99-3.56,7.29.15,14.59,7.33,16.27,16,.93,4.8,0,9.29-2.54,12.32-1.94,2.3-4.68,3.56-7.75,3.56ZM197.02,425.57c1.51,7.76,7.91,14.18,14.27,14.32,2.59.07,4.76-.92,6.36-2.82,2.14-2.54,2.9-6.4,2.09-10.59-1.51-7.76-7.91-14.18-14.27-14.32-2.58-.06-4.76.92-6.36,2.82-2.14,2.54-2.9,6.4-2.09,10.59h0Z" fill="#fff8f0"/><path d="M400.35,481.37h-88.17s0,28.76,0,28.76h119.4c7.22,0,7.71-11.73,2.81-16.18,0,0-12.23-12.58-34.04-12.58Z" fill="#9d5f37"/><path d="M225.55,512c-25.55,0-46.68-.2-52.57-.8-17.31-1.76-20.97-11.46-21.31-12.49-1.41-3.09-53.36-117.44-59.75-133.11-2.28-5.6-2.37-9.89-.28-12.74,2.89-3.94,8.77-3.5,9.02-3.48,16.31.58,152.96,0,154.34,0h.12c18.73,0,24.68,16.55,25.11,17.82l52.11,113.15h68.01c21.73,0,33.98,12.07,34.76,12.87,3.24,2.97,4.5,8.95,2.79,13.36-1.13,2.93-3.43,4.6-6.32,4.6h-86.4c-.08.02-.16.03-.24.03-4.16.05-70.02.79-119.4.8ZM99.97,351.43c-1.37,0-4.9.25-6.66,2.66-1.64,2.24-1.46,5.84.53,10.72,6.43,15.77,59.21,131.92,59.74,133.09.02.04.04.09.05.13.12.38,3.12,9.43,19.56,11.1,16.82,1.71,164.19.08,171.47,0,.09-.02.17-.04.26-.04h86.67c2.58,0,3.81-1.78,4.38-3.27,1.4-3.62.36-8.7-2.27-11.09-.02-.01-.03-.03-.05-.04-.12-.12-12.21-12.27-33.3-12.27h-68.68c-.41,0-.77-.24-.94-.6l-52.42-113.8s-.04-.08-.05-.13c-.21-.67-5.33-16.43-23.15-16.43h-.12c-1.38,0-138.07.58-154.47,0-.02,0-.23-.02-.56-.02Z" fill="#5b3b28"/><path d="M339.41,503.15c-.42,0-.82-.26-.97-.68l-7.74-20.73c-.2-.54.07-1.14.61-1.34.54-.2,1.14.07,1.34.61l7.74,20.73c.2.54-.07,1.14-.61,1.34-.12.04-.24.07-.36.07Z" fill="#5b3b28"/><path d="M246.35,245.3H19.09c-10.52,0-19.09-8.56-19.09-19.09V19.09C0,8.56,8.56,0,19.09,0h227.26c10.53,0,19.09,8.56,19.09,19.09v207.12c0,10.52-8.56,19.09-19.09,19.09ZM19.09,2.08C9.71,2.08,2.08,9.71,2.08,19.09v207.12c0,9.38,7.63,17.01,17.01,17.01h227.26c9.38,0,17.01-7.63,17.01-17.01V19.09c0-9.38-7.63-17.01-17.01-17.01H19.09Z" fill="#9d5f37"/><path d="M39.89,128.72c-5.75,0-10.42-4.68-10.42-10.43s4.68-10.43,10.42-10.43,10.43,4.68,10.43,10.43-4.68,10.43-10.43,10.43ZM39.89,109.95c-4.6,0-8.35,3.74-8.35,8.35s3.74,8.35,8.35,8.35,8.35-3.75,8.35-8.35-3.74-8.35-8.35-8.35Z" fill="#5b3b28"/><path d="M232.59,119.34H62.31c-.57,0-1.04-.47-1.04-1.04s.46-1.04,1.04-1.04h170.27c.57,0,1.04.47,1.04,1.04s-.46,1.04-1.04,1.04Z" fill="#5b3b28"/><path d="M39.89,155.57c-5.75,0-10.42-4.68-10.42-10.43s4.68-10.43,10.42-10.43,10.43,4.68,10.43,10.43-4.68,10.43-10.43,10.43ZM39.89,136.8c-4.6,0-8.35,3.74-8.35,8.35s3.74,8.35,8.35,8.35,8.35-3.74,8.35-8.35-3.74-8.35-8.35-8.35Z" fill="#5b3b28"/><path d="M232.59,146.18H62.31c-.57,0-1.04-.47-1.04-1.04s.46-1.04,1.04-1.04h170.27c.57,0,1.04.47,1.04,1.04s-.46,1.04-1.04,1.04Z" fill="#5b3b28"/><path d="M39.89,195.23c-5.75,0-10.42-4.68-10.42-10.43s4.68-10.43,10.42-10.43,10.43,4.68,10.43,10.43-4.68,10.43-10.43,10.43ZM39.89,176.45c-4.6,0-8.35,3.74-8.35,8.35s3.74,8.35,8.35,8.35,8.35-3.74,8.35-8.35-3.74-8.35-8.35-8.35Z" fill="#5b3b28"/><path d="M232.59,185.84H62.31c-.57,0-1.04-.47-1.04-1.04s.46-1.04,1.04-1.04h170.27c.57,0,1.04.47,1.04,1.04s-.46,1.04-1.04,1.04Z" fill="#5b3b28"/><path d="M39.89,222.07c-5.75,0-10.42-4.68-10.42-10.43s4.68-10.43,10.42-10.43,10.43,4.68,10.43,10.43-4.68,10.43-10.43,10.43ZM39.89,203.3c-4.6,0-8.35,3.74-8.35,8.35s3.74,8.35,8.35,8.35,8.35-3.74,8.35-8.35-3.74-8.35-8.35-8.35Z" fill="#5b3b28"/><path d="M232.59,212.69H62.31c-.57,0-1.04-.47-1.04-1.04s.46-1.04,1.04-1.04h170.27c.57,0,1.04.47,1.04,1.04s-.46,1.04-1.04,1.04Z" fill="#5b3b28"/><path d="M64.05,92.29c-19.07,0-34.59-15.52-34.59-34.59s15.52-34.59,34.59-34.59,34.59,15.52,34.59,34.59-15.52,34.59-34.59,34.59ZM64.05,25.2c-17.93,0-32.51,14.58-32.51,32.51s14.58,32.51,32.51,32.51,32.51-14.58,32.51-32.51-14.58-32.51-32.51-32.51Z" fill="#5b3b28"/><path d="M134.33,46.58l-2.54,7.8c-.19.57-.72.96-1.32.96h-8.2c-1.34,0-1.9,1.71-.81,2.5l6.63,4.82c.49.35.69.98.5,1.55l-2.54,7.8c-.41,1.28,1.04,2.34,2.13,1.55l6.63-4.82c.49-.35,1.14-.35,1.63,0l6.63,4.82c1.08.79,2.55-.27,2.13-1.55l-2.53-7.8c-.19-.57.02-1.2.5-1.55l6.63-4.82c1.09-.79.53-2.5-.81-2.51h-8.2c-.6,0-1.13-.39-1.32-.96l-2.53-7.8c-.41-1.28-2.22-1.28-2.63,0Z" fill="#f7c56f"/><path d="M175.43,46.58l-2.54,7.8c-.19.57-.72.96-1.32.96h-8.2c-1.34,0-1.9,1.71-.81,2.5l6.63,4.82c.49.35.69.98.5,1.55l-2.54,7.8c-.41,1.28,1.04,2.34,2.13,1.55l6.63-4.82c.49-.35,1.14-.35,1.63,0l6.63,4.82c1.08.79,2.55-.27,2.13-1.55l-2.53-7.8c-.19-.57.02-1.2.5-1.55l6.63-4.82c1.09-.79.53-2.5-.81-2.51h-8.2c-.6,0-1.13-.39-1.32-.96l-2.53-7.8c-.41-1.28-2.22-1.28-2.63,0Z" fill="#f7c56f"/><path d="M216.52,46.58l-2.54,7.8c-.19.57-.72.96-1.32.96h-8.2c-1.34,0-1.9,1.71-.81,2.5l6.63,4.82c.49.35.69.98.5,1.55l-2.54,7.8c-.41,1.28,1.04,2.34,2.13,1.55l6.63-4.82c.49-.35,1.14-.35,1.63,0l6.63,4.82c1.08.79,2.55-.27,2.13-1.55l-2.53-7.8c-.19-.57.02-1.2.5-1.55l6.63-4.82c1.09-.79.53-2.5-.81-2.51h-8.2c-.6,0-1.13-.39-1.32-.96l-2.53-7.8c-.41-1.28-2.22-1.28-2.63,0Z" fill="#f7c56f"/><path d="M76.11,70.35s-3.95,4.19-.88,6.7c3.07,2.51,7.82,1.67,9.39-1.74,1.56-3.41-4.06-8.81-8.5-4.97Z" fill="#5b3b28"/><path d="M75.17,74.96s-.46,10.94.15,13.81c0,0-5.33,2.06-14.36,1.56-9.03-.5-7.8-3.3-7.8-3.3,0,0,.93-10.96-.06-16.7l22.08,4.63Z" fill="#f4be96"/><path d="M53.1,90.13s-.05,0-.08,0c-.57-.04-1-.54-.96-1.11,0-.13.96-12.97,0-18.51-.06-.34.05-.69.3-.92s.59-.34.93-.27l22.08,4.63c.5.1.85.55.82,1.06-.13,3.01-.35,11.3.13,13.56.12.56-.24,1.11-.8,1.23-.56.12-1.11-.24-1.23-.8-.53-2.51-.3-10.5-.2-13.19l-19.78-4.15c.66,6.23-.14,17.03-.18,17.52-.04.55-.5.96-1.03.96Z" fill="#5b3b28"/><path d="M78.63,77.77s-3.95,4.19-.88,6.7c3.07,2.51,7.82,1.67,9.39-1.74,1.56-3.41-4.06-8.81-8.5-4.97Z" fill="#5b3b28"/><path d="M46.28,68.27s-5.57,1.48-4.28,5.23c1.28,3.75,5.77,5.54,8.9,3.46,3.13-2.08,1.18-9.63-4.61-8.7Z" fill="#5b3b28"/><path d="M44.52,75.9s-5.57,1.48-4.28,5.23c1.28,3.75,5.77,5.54,8.9,3.46s1.18-9.63-4.61-8.7Z" fill="#5b3b28"/><path d="M67.01,33.41h0c-10.77.33-19.27,5.19-18.94,15.96l1.94,11.62c3.7,20.77,20.25,18.75,20.25,18.75,11.01-.34,16.5-9.17,16.17-19.94l-.36-11.59c-.33-10.77-8.3-15.12-19.06-14.79Z" fill="#f4be96"/><ellipse cx="81.19" cy="57.18" rx="1.35" ry="1.47" transform="translate(-5.53 8.8) rotate(-6)" fill="#5b3b28"/><path d="M74.64,68.32c-1.42,0-3.15-.35-5.07-1.48-.5-.29-.66-.93-.37-1.42.29-.49.93-.66,1.42-.37,3.96,2.31,6.73.56,6.85.49.48-.31,1.12-.18,1.44.29.31.48.19,1.11-.28,1.43-.1.07-1.61,1.05-3.98,1.05Z" fill="#5b3b28"/><path d="M76.17,62.63c-.53,0-.98-.4-1.03-.94-.01-.08-.06-.32-.23-.32h0c-.16,0-.35.33-.4.46-.2.53-.8.81-1.33.62-.53-.19-.82-.77-.63-1.31.24-.69,1-1.84,2.35-1.84h.01c1.52,0,2.2,1.32,2.29,2.2.06.57-.36,1.08-.93,1.13-.03,0-.07,0-.1,0Z" fill="#5b3b28"/><path d="M70.63,80.71c-3.68,0-9.42-.99-14.92-5.96-.42-.38-.46-1.04-.07-1.47.39-.43,1.04-.46,1.47-.07,8.08,7.31,16.84,5.1,16.92,5.07.04-.01,5.05-1.43,7.62-5.05.06-.08,3.04-3.93,3.56-9.15.53-5.42.04-9.74.03-9.78-.07-.57.34-1.09.91-1.15.57-.07,1.09.34,1.15.91.02.18.53,4.57-.03,10.23-.58,5.85-3.82,10.02-3.96,10.19-2.97,4.19-8.5,5.75-8.74,5.81-.16.04-1.65.42-3.94.42Z" fill="#5b3b28"/><path d="M76.19,36.54s4.55,8.04-4.25,11.05c-.94.32-1.92.53-2.91.66-2.67.35-12.06,2.05-14.85,9.08,0,0,.81,14.23-4.93,17.59l-4.61-2.63s-9.53-12.23-2.42-27.5c0,0,12.21-26.83,35.23-9.92l-1.26,1.68Z" fill="#5b3b28"/><path d="M52.16,54.13c-.1,0-.2-.02-.31-.05-.55-.17-.86-.75-.69-1.3,1.79-5.83,6.51-9.16,14-9.9,4.12-.4,5-2.3,5.04-2.38.23-.52.83-.76,1.35-.55.52.22.78.8.58,1.32-.05.13-1.28,3.13-6.77,3.67-6.68.66-10.67,3.42-12.22,8.44-.14.45-.55.73-.99.73Z" fill="#fff8f0"/><path d="M74.52,35.92s4.78-4.09,9.11.22c9.04,9,2.66,19.27,2.66,19.27,0,0-11.71-10.24-11.93-16.55l.15-2.95Z" fill="#5b3b28"/><path d="M51.56,51.85c-1.72-.04-5.63,1.82-4.31,7.22,1.32,5.4,8.22,3.8,8.22,3.8l2.03-8.11c-1.53-.85-4.22-2.87-5.94-2.91Z" fill="#f4be96"/><path d="M53.22,64.12c-3.67,0-6.24-1.74-6.99-4.82-.78-3.2.13-5.21,1.04-6.33,1.21-1.5,2.98-2.17,4.23-2.17.03,0,.06,0,.08,0,1.58.04,3.47,1.22,5.15,2.27l.61.38c.49.3.64.94.34,1.43s-.94.64-1.43.34l-.62-.39c-1.3-.81-3.09-1.93-4.1-1.95-.54-.01-1.8.35-2.64,1.39-.89,1.1-1.1,2.63-.64,4.54.8,3.27,4.22,3.38,6.18,3.16.58-.07,1.08.35,1.15.91.06.57-.34,1.08-.91,1.15-.5.06-.98.08-1.45.08Z" fill="#5b3b28"/><path d="M54.17,58.37c-.46,0-.88-.31-1-.77-.08-.29-.47-1.24-1.73-1.13-.59.04-1.07-.38-1.12-.95-.04-.57.38-1.07.95-1.12,2.48-.2,3.65,1.67,3.9,2.68.14.56-.2,1.12-.75,1.26-.09.02-.17.03-.26.03Z" fill="#5b3b28"/><ellipse cx="67.61" cy="57.22" rx="1.47" ry="1.35" transform="translate(8.52 123.2) rotate(-88.4)" fill="#5b3b28"/><path d="M45.49,65.94c-.39,0-.77-.22-.94-.6-.18-.4-4.42-9.89,1.34-19.93.29-.5.92-.67,1.42-.38.5.29.67.92.38,1.42-5.21,9.08-1.29,17.94-1.25,18.03.24.52,0,1.14-.51,1.38-.14.06-.29.09-.43.09Z" fill="#fff8f0"/><path d="M50.32,41.06c-.21,0-.42-.06-.61-.2-.46-.34-.57-.98-.23-1.45.13-.18,3.26-4.41,11.23-6.16.55-.12,1.11.23,1.24.79.12.56-.23,1.11-.79,1.24-7.21,1.58-9.97,5.31-9.99,5.34-.2.28-.52.43-.84.43Z" fill="#fff8f0"/><path d="M53.7,72.22c-.34,0-.68-.17-.87-.48-.04-.07-1.04-1.62-1.49-2.78-.21-.54.06-1.14.59-1.34.53-.21,1.14.06,1.34.59.31.8,1.04,2,1.3,2.4.31.48.17,1.12-.31,1.44-.17.11-.37.17-.56.17Z" fill="#5b3b28"/><path d="M143.9,74.87c-.5,0-.99-.16-1.43-.47l-6.63-4.82c-.12-.09-.29-.09-.41,0l-6.63,4.82c-.87.63-1.98.63-2.85,0-.87-.63-1.21-1.69-.88-2.71l2.54-7.8c.05-.14,0-.3-.12-.39l-6.63-4.82c-.87-.63-1.21-1.69-.88-2.71s1.24-1.67,2.3-1.67h8.2c.15,0,.28-.09.33-.24l2.54-7.8c.33-1.02,1.24-1.67,2.3-1.67h0c1.07,0,1.97.66,2.3,1.68l2.53,7.8c.05.14.18.24.33.24h8.2c1.07,0,1.97.66,2.3,1.68.33,1.02-.02,2.08-.88,2.71l-6.63,4.82c-.12.09-.17.24-.13.39l2.53,7.8c.33,1.02-.02,2.08-.88,2.71-.43.31-.93.47-1.42.47ZM135.64,67.43c.5,0,1,.16,1.43.46l6.63,4.82c.17.12.32.07.41,0s.19-.19.13-.39l-2.53-7.8c-.33-1,.03-2.09.88-2.71l6.63-4.82c.17-.12.16-.28.13-.39-.03-.11-.12-.24-.33-.24h-8.2c-1.05,0-1.98-.68-2.3-1.68l-2.53-7.8c-.06-.2-.21-.24-.33-.24h0c-.11,0-.26.04-.33.24h0s-2.54,7.8-2.54,7.8c-.33,1-1.25,1.67-2.31,1.67h-8.2s0,0,0,0c-.21,0-.29.13-.33.24s-.04.26.12.39l6.63,4.82c.85.62,1.2,1.71.88,2.71l-2.54,7.8c-.06.2.03.32.13.39.09.07.24.12.41,0l6.63-4.82c.43-.31.93-.46,1.42-.46ZM134.33,46.58h.01-.01Z" fill="#5b3b28"/><path d="M184.99,74.87c-.5,0-.99-.16-1.43-.47l-6.63-4.82c-.12-.09-.29-.09-.41,0l-6.63,4.82c-.87.63-1.98.63-2.85,0-.87-.63-1.21-1.69-.88-2.71l2.54-7.8c.05-.14,0-.3-.12-.39l-6.63-4.82c-.87-.63-1.21-1.69-.88-2.71s1.24-1.67,2.3-1.67h8.2c.15,0,.28-.09.33-.24l2.54-7.8h0c.33-1.02,1.24-1.67,2.31-1.67h0c1.07,0,1.97.66,2.3,1.68l2.53,7.8c.05.14.18.24.33.24h8.2c1.07,0,1.97.66,2.3,1.68.33,1.02-.02,2.08-.88,2.71l-6.63,4.82c-.12.09-.17.24-.13.39l2.53,7.8c.33,1.02-.02,2.08-.88,2.71-.43.31-.93.47-1.43.47ZM176.74,67.43c.5,0,1,.16,1.43.46l6.63,4.82c.17.12.32.07.41,0s.19-.19.12-.39l-2.53-7.8c-.33-1,.03-2.09.88-2.71l6.63-4.82c.17-.12.16-.28.13-.39s-.12-.24-.33-.24h-8.2c-1.05,0-1.98-.68-2.3-1.68l-2.53-7.8c-.06-.2-.21-.24-.33-.24h0c-.11,0-.26.04-.33.24l-2.54,7.8c-.33,1-1.25,1.67-2.31,1.67h-8.2s0,0,0,0c-.21,0-.29.13-.33.24s-.04.26.12.39l6.63,4.82c.85.62,1.21,1.71.88,2.71l-2.54,7.8c-.06.2.03.32.13.39.09.07.24.12.41,0l6.63-4.82c.43-.31.93-.46,1.42-.46Z" fill="#5b3b28"/><path d="M226.09,74.87c-.5,0-.99-.16-1.43-.47l-6.63-4.82c-.12-.09-.29-.09-.41,0l-6.63,4.82c-.87.63-1.98.63-2.85,0-.87-.63-1.21-1.69-.88-2.71l2.54-7.8c.05-.14,0-.3-.12-.39l-6.63-4.82c-.87-.63-1.21-1.69-.88-2.71s1.24-1.67,2.3-1.67h8.2c.15,0,.28-.09.33-.24l2.54-7.8c.33-1.02,1.24-1.67,2.3-1.67h0c1.07,0,1.97.66,2.3,1.68l2.53,7.8c.05.14.18.24.33.24h8.2c1.07,0,1.97.66,2.3,1.68.33,1.02-.02,2.08-.88,2.71l-6.63,4.82c-.12.09-.17.24-.13.39l2.53,7.8c.33,1.02-.02,2.08-.88,2.71-.43.31-.93.47-1.43.47ZM217.83,67.43c.5,0,1,.16,1.43.46l6.63,4.82c.17.12.32.07.41,0s.19-.19.12-.39l-2.53-7.8c-.33-1,.03-2.09.88-2.71l6.63-4.82c.17-.12.16-.28.13-.39s-.12-.24-.33-.24h-8.2c-1.05,0-1.98-.68-2.3-1.68l-2.53-7.8c-.06-.2-.21-.24-.33-.24h0c-.11,0-.26.04-.33.24h0l-2.54,7.8c-.33,1-1.25,1.67-2.31,1.67h-8.2s0,0,0,0c-.21,0-.29.13-.33.24s-.04.26.12.39l6.63,4.82c.85.62,1.21,1.71.88,2.71l-2.54,7.8c-.06.2.03.32.13.39.09.07.24.12.41,0l6.63-4.82c.43-.31.93-.46,1.42-.46ZM216.52,46.58h.01-.01Z" fill="#5b3b28"/></svg>